<svg width="2272" height="255" viewBox="0 0 2272 255" fill="none" xmlns="http://www.w3.org/2000/svg">
    <path d="M0.0500015 4.99998H111.35C137.95 4.99998 161.4 10.1333 181.7 20.4C202.233 30.4333 218.1 44.6667 229.3 63.1C240.733 81.5333 246.45 103 246.45 127.5C246.45 152 240.733 173.467 229.3 191.9C218.1 210.333 202.233 224.683 181.7 234.95C161.4 244.983 137.95 250 111.35 250H0.0500015V4.99998ZM108.55 203.45C133.05 203.45 152.533 196.683 167 183.15C181.7 169.383 189.05 150.833 189.05 127.5C189.05 104.167 181.7 85.7333 167 72.2C152.533 58.4333 133.05 51.55 108.55 51.55H56.75V203.45H108.55ZM478.91 204.5V250H289.21V4.99998H474.36V50.5H345.56V103.7H459.31V147.8H345.56V204.5H478.91ZM604.525 254.2C585.158 254.2 566.375 251.633 548.175 246.5C530.208 241.133 515.741 234.25 504.775 225.85L524.025 183.15C534.525 190.85 547.008 197.033 561.475 201.7C575.941 206.367 590.408 208.7 604.875 208.7C620.975 208.7 632.875 206.367 640.575 201.7C648.275 196.8 652.125 190.383 652.125 182.45C652.125 176.617 649.791 171.833 645.125 168.1C640.691 164.133 634.858 160.983 627.625 158.65C620.625 156.317 611.058 153.75 598.925 150.95C580.258 146.517 564.975 142.083 553.075 137.65C541.175 133.217 530.908 126.1 522.275 116.3C513.875 106.5 509.675 93.4333 509.675 77.1C509.675 62.8667 513.525 50.0333 521.225 38.6C528.925 26.9333 540.475 17.7167 555.875 10.95C571.508 4.18333 590.525 0.799996 612.925 0.799996C628.558 0.799996 643.841 2.66666 658.775 6.39999C673.708 10.1333 686.775 15.5 697.975 22.5L680.475 65.55C657.841 52.7167 635.208 46.3 612.575 46.3C596.708 46.3 584.925 48.8667 577.225 54C569.758 59.1333 566.025 65.9 566.025 74.3C566.025 82.7 570.341 89 578.975 93.2C587.841 97.1667 601.258 101.133 619.225 105.1C637.891 109.533 653.175 113.967 665.075 118.4C676.975 122.833 687.125 129.833 695.525 139.4C704.158 148.967 708.475 161.917 708.475 178.25C708.475 192.25 704.508 205.083 696.575 216.75C688.875 228.183 677.208 237.283 661.575 244.05C645.941 250.817 626.925 254.2 604.525 254.2ZM1714.16 204.5V250H1524.46V4.99998H1709.61V50.5H1580.81V103.7H1694.56V147.8H1580.81V204.5H1714.16ZM1924.14 123.65H1975.94V223.05C1962.64 233.083 1947.24 240.783 1929.74 246.15C1912.24 251.517 1894.63 254.2 1876.89 254.2C1851.46 254.2 1828.59 248.833 1808.29 238.1C1787.99 227.133 1772.01 212.083 1760.34 192.95C1748.91 173.583 1743.19 151.767 1743.19 127.5C1743.19 103.233 1748.91 81.5333 1760.34 62.4C1772.01 43.0333 1788.11 27.9833 1808.64 17.25C1829.18 6.28333 1852.28 0.799996 1877.94 0.799996C1899.41 0.799996 1918.89 4.41666 1936.39 11.65C1953.89 18.8833 1968.59 29.3833 1980.49 43.15L1944.09 76.75C1926.59 58.3167 1905.48 49.1 1880.74 49.1C1865.11 49.1 1851.23 52.3667 1839.09 58.9C1826.96 65.4333 1817.51 74.65 1810.74 86.55C1803.98 98.45 1800.59 112.1 1800.59 127.5C1800.59 142.667 1803.98 156.2 1810.74 168.1C1817.51 180 1826.84 189.333 1838.74 196.1C1850.88 202.633 1864.64 205.9 1880.04 205.9C1896.38 205.9 1911.08 202.4 1924.14 195.4V123.65ZM2189.96 197.5H2076.21L2054.51 250H1996.41L2105.61 4.99998H2161.61L2271.16 250H2211.66L2189.96 197.5ZM2172.11 154.45L2133.26 60.65L2094.41 154.45H2172.11Z" fill="#40302A"/>
    <path d="M908.568 197.5H794.818L773.118 250H715.018L824.218 4.99998H880.218L989.768 250H930.268L908.568 197.5ZM890.718 154.45L851.868 60.65L813.018 154.45H890.718ZM1121.24 4.99998C1142.94 4.99998 1161.72 8.61665 1177.59 15.85C1193.69 23.0833 1206.05 33.35 1214.69 46.65C1223.32 59.95 1227.64 75.7 1227.64 93.9C1227.64 111.867 1223.32 127.617 1214.69 141.15C1206.05 154.45 1193.69 164.717 1177.59 171.95C1161.72 178.95 1142.94 182.45 1121.24 182.45H1071.89V250H1015.19V4.99998H1121.24ZM1118.09 136.25C1135.12 136.25 1148.07 132.633 1156.94 125.4C1165.8 117.933 1170.24 107.433 1170.24 93.9C1170.24 80.1333 1165.8 69.6333 1156.94 62.4C1148.07 54.9333 1135.12 51.2 1118.09 51.2H1071.89V136.25H1118.09ZM1374.17 4.99998C1395.87 4.99998 1414.65 8.61665 1430.52 15.85C1446.62 23.0833 1458.98 33.35 1467.62 46.65C1476.25 59.95 1480.57 75.7 1480.57 93.9C1480.57 111.867 1476.25 127.617 1467.62 141.15C1458.98 154.45 1446.62 164.717 1430.52 171.95C1414.65 178.95 1395.87 182.45 1374.17 182.45H1324.82V250H1268.12V4.99998H1374.17ZM1371.02 136.25C1388.05 136.25 1401 132.633 1409.87 125.4C1418.73 117.933 1423.17 107.433 1423.17 93.9C1423.17 80.1333 1418.73 69.6333 1409.87 62.4C1401 54.9333 1388.05 51.2 1371.02 51.2H1324.82V136.25H1371.02Z" fill="#BFA18F"/>
</svg>