<svg width="2065" height="1925" viewBox="0 0 2065 1925" fill="none" xmlns="http://www.w3.org/2000/svg">
    <path d="M1490.49 108.092H1414.58L1412.93 106.973C1350.95 64.1675 1230.32 -18.9858 1065.13 4.78803C1065.4 5.16614 1065.52 5.60727 1065.77 5.98539C943.251 26.2775 806.043 121.814 760.26 250.672C716.099 374.819 750.271 524.142 861.94 694.624L1032.71 955.553C1290.93 826.443 1281.69 629.762 1276.19 512.247C1275.38 494.933 1274.84 482.408 1274.84 471.285C1274.84 437.822 1301.92 410.755 1335.37 410.755C1368.83 410.755 1395.9 437.822 1395.9 471.285C1395.9 480.69 1396.43 491.325 1396.97 502.857C1403.11 634.094 1415.53 899.498 1086.85 1063.84C1066.34 1074.11 1032.31 1094.35 1011.61 1094.35C991.744 1094.35 972.412 1084.6 960.896 1066.99L760.622 760.951C627.195 557.117 588.659 371.794 646.164 210.119C658.973 174.12 676.618 143.146 695.87 114.362C306.556 161.406 0.425814 493.877 0.268266 903.752C-1.16541 964.77 -2.4258 1150.44 159.375 1388.9C215.887 1472.26 245.805 1576.41 245.805 1690.15V1863.53C245.805 1896.99 272.872 1924.06 306.335 1924.06H548.453C581.916 1924.06 608.179 1896.99 608.179 1863.53V1560.86H851.117V1863.53C851.117 1896.99 878.199 1924.06 911.662 1924.06H1153.78C1187.24 1924.06 1213.51 1896.99 1213.51 1863.53C1213.51 1628.78 1262.38 1418.52 1361.33 1220.67L1430.09 1083.17L1546.89 1102.62C1634.79 1117.28 1698.58 1192.58 1698.58 1281.74V1379.28C1698.58 1428.87 1630.53 1457.25 1595.24 1422.07C1571.61 1398.42 1533.3 1398.42 1509.65 1422.07L1338.57 1593.15C1314.94 1616.79 1314.94 1655.09 1338.57 1678.74C1441.02 1781.3 1587.08 1823.15 1728.95 1790.65C1909.38 1749.32 2065 1548.92 2065 1353.08V679.357C2065 364.342 1805.52 108.092 1490.49 108.092ZM1638.05 713.419C1604.63 713.419 1577.52 686.305 1577.52 652.874C1577.52 619.442 1604.63 592.344 1638.05 592.344C1671.48 592.344 1698.59 619.442 1698.59 652.874C1698.59 686.305 1671.48 713.419 1638.05 713.419Z" fill="#D9B6A3"/>
</svg>