<svg width="2301" height="1813" viewBox="0 0 2301 1813" fill="none" xmlns="http://www.w3.org/2000/svg">
    <path d="M1478.02 77.4603H1423.32L1422.13 76.6543C1377.47 45.8097 1290.54 -14.1086 1171.51 3.02229C1171.7 3.29475 1171.79 3.61262 1171.98 3.88508C1083.69 18.507 984.817 87.3483 951.827 180.2C920.005 269.657 944.629 377.256 1025.1 500.1L1148.15 688.12C1334.21 595.086 1327.56 453.362 1323.6 368.685C1323.01 356.208 1322.62 347.183 1322.62 339.168C1322.62 315.056 1342.14 295.552 1366.24 295.552C1390.35 295.552 1409.86 315.056 1409.86 339.168C1409.86 345.946 1410.24 353.609 1410.63 361.919C1415.06 456.484 1424 647.728 1187.17 766.145C1172.38 773.547 1147.86 788.135 1132.95 788.135C1118.63 788.135 1104.7 781.108 1096.4 768.416L952.088 547.894C855.943 401.016 828.175 267.478 869.611 150.979C878.841 125.038 891.556 102.719 905.429 81.9786C624.896 115.877 404.304 355.448 404.191 650.793C403.157 694.761 402.249 828.549 518.84 1000.38C559.562 1060.45 581.12 1135.5 581.12 1217.45V1342.38C581.12 1366.5 600.624 1386 624.737 1386H799.203C823.316 1386 842.24 1366.5 842.24 1342.38V1124.29H1017.3V1342.38C1017.3 1366.5 1036.81 1386 1060.92 1386H1235.39C1259.5 1386 1278.43 1366.5 1278.43 1342.38C1278.43 1173.23 1313.64 1021.72 1384.95 879.159L1434.49 780.075L1518.66 794.095C1582 804.653 1627.96 858.917 1627.96 923.161V993.444C1627.96 1029.18 1578.93 1049.63 1553.5 1024.28C1536.47 1007.24 1508.86 1007.24 1491.82 1024.28L1368.54 1147.55C1351.52 1164.59 1351.52 1192.19 1368.54 1209.23C1442.37 1283.14 1547.62 1313.29 1649.85 1289.87C1779.86 1260.09 1892 1115.69 1892 974.565V489.1C1892 262.108 1705.02 77.4603 1478.02 77.4603ZM1584.35 513.644C1560.27 513.644 1540.73 494.106 1540.73 470.017C1540.73 445.927 1560.27 426.4 1584.35 426.4C1608.44 426.4 1627.97 445.927 1627.97 470.017C1627.97 494.106 1608.44 513.644 1584.35 513.644Z" fill="#D9B6A3"/>
    <path d="M29.05 1480H140.35C166.95 1480 190.4 1485.13 210.7 1495.4C231.233 1505.43 247.1 1519.67 258.3 1538.1C269.733 1556.53 275.45 1578 275.45 1602.5C275.45 1627 269.733 1648.47 258.3 1666.9C247.1 1685.33 231.233 1699.68 210.7 1709.95C190.4 1719.98 166.95 1725 140.35 1725H29.05V1480ZM137.55 1678.45C162.05 1678.45 181.533 1671.68 196 1658.15C210.7 1644.38 218.05 1625.83 218.05 1602.5C218.05 1579.17 210.7 1560.73 196 1547.2C181.533 1533.43 162.05 1526.55 137.55 1526.55H85.75V1678.45H137.55ZM507.91 1679.5V1725H318.21V1480H503.36V1525.5H374.56V1578.7H488.31V1622.8H374.56V1679.5H507.91ZM633.525 1729.2C614.158 1729.2 595.375 1726.63 577.175 1721.5C559.208 1716.13 544.741 1709.25 533.775 1700.85L553.025 1658.15C563.525 1665.85 576.008 1672.03 590.475 1676.7C604.941 1681.37 619.408 1683.7 633.875 1683.7C649.975 1683.7 661.875 1681.37 669.575 1676.7C677.275 1671.8 681.125 1665.38 681.125 1657.45C681.125 1651.62 678.791 1646.83 674.125 1643.1C669.691 1639.13 663.858 1635.98 656.625 1633.65C649.625 1631.32 640.058 1628.75 627.925 1625.95C609.258 1621.52 593.975 1617.08 582.075 1612.65C570.175 1608.22 559.908 1601.1 551.275 1591.3C542.875 1581.5 538.675 1568.43 538.675 1552.1C538.675 1537.87 542.525 1525.03 550.225 1513.6C557.925 1501.93 569.475 1492.72 584.875 1485.95C600.508 1479.18 619.525 1475.8 641.925 1475.8C657.558 1475.8 672.841 1477.67 687.775 1481.4C702.708 1485.13 715.775 1490.5 726.975 1497.5L709.475 1540.55C686.841 1527.72 664.208 1521.3 641.575 1521.3C625.708 1521.3 613.925 1523.87 606.225 1529C598.758 1534.13 595.025 1540.9 595.025 1549.3C595.025 1557.7 599.341 1564 607.975 1568.2C616.841 1572.17 630.258 1576.13 648.225 1580.1C666.891 1584.53 682.175 1588.97 694.075 1593.4C705.975 1597.83 716.125 1604.83 724.525 1614.4C733.158 1623.97 737.475 1636.92 737.475 1653.25C737.475 1667.25 733.508 1680.08 725.575 1691.75C717.875 1703.18 706.208 1712.28 690.575 1719.05C674.941 1725.82 655.925 1729.2 633.525 1729.2ZM1743.16 1679.5V1725H1553.46V1480H1738.61V1525.5H1609.81V1578.7H1723.56V1622.8H1609.81V1679.5H1743.16ZM1953.14 1598.65H2004.94V1698.05C1991.64 1708.08 1976.24 1715.78 1958.74 1721.15C1941.24 1726.52 1923.63 1729.2 1905.89 1729.2C1880.46 1729.2 1857.59 1723.83 1837.29 1713.1C1816.99 1702.13 1801.01 1687.08 1789.34 1667.95C1777.91 1648.58 1772.19 1626.77 1772.19 1602.5C1772.19 1578.23 1777.91 1556.53 1789.34 1537.4C1801.01 1518.03 1817.11 1502.98 1837.64 1492.25C1858.18 1481.28 1881.28 1475.8 1906.94 1475.8C1928.41 1475.8 1947.89 1479.42 1965.39 1486.65C1982.89 1493.88 1997.59 1504.38 2009.49 1518.15L1973.09 1551.75C1955.59 1533.32 1934.48 1524.1 1909.74 1524.1C1894.11 1524.1 1880.23 1527.37 1868.09 1533.9C1855.96 1540.43 1846.51 1549.65 1839.74 1561.55C1832.98 1573.45 1829.59 1587.1 1829.59 1602.5C1829.59 1617.67 1832.98 1631.2 1839.74 1643.1C1846.51 1655 1855.84 1664.33 1867.74 1671.1C1879.88 1677.63 1893.64 1680.9 1909.04 1680.9C1925.38 1680.9 1940.08 1677.4 1953.14 1670.4V1598.65ZM2218.96 1672.5H2105.21L2083.51 1725H2025.41L2134.61 1480H2190.61L2300.16 1725H2240.66L2218.96 1672.5ZM2201.11 1629.45L2162.26 1535.65L2123.41 1629.45H2201.11Z" fill="#400101"/>
    <path d="M937.568 1672.5H823.818L802.118 1725H744.018L853.218 1480H909.218L1018.77 1725H959.268L937.568 1672.5ZM919.718 1629.45L880.868 1535.65L842.018 1629.45H919.718ZM1150.24 1480C1171.94 1480 1190.72 1483.62 1206.59 1490.85C1222.69 1498.08 1235.05 1508.35 1243.69 1521.65C1252.32 1534.95 1256.64 1550.7 1256.64 1568.9C1256.64 1586.87 1252.32 1602.62 1243.69 1616.15C1235.05 1629.45 1222.69 1639.72 1206.59 1646.95C1190.72 1653.95 1171.94 1657.45 1150.24 1657.45H1100.89V1725H1044.19V1480H1150.24ZM1147.09 1611.25C1164.12 1611.25 1177.07 1607.63 1185.94 1600.4C1194.8 1592.93 1199.24 1582.43 1199.24 1568.9C1199.24 1555.13 1194.8 1544.63 1185.94 1537.4C1177.07 1529.93 1164.12 1526.2 1147.09 1526.2H1100.89V1611.25H1147.09ZM1403.17 1480C1424.87 1480 1443.65 1483.62 1459.52 1490.85C1475.62 1498.08 1487.98 1508.35 1496.62 1521.65C1505.25 1534.95 1509.57 1550.7 1509.57 1568.9C1509.57 1586.87 1505.25 1602.62 1496.62 1616.15C1487.98 1629.45 1475.62 1639.72 1459.52 1646.95C1443.65 1653.95 1424.87 1657.45 1403.17 1657.45H1353.82V1725H1297.12V1480H1403.17ZM1400.02 1611.25C1417.05 1611.25 1430 1607.63 1438.87 1600.4C1447.73 1592.93 1452.17 1582.43 1452.17 1568.9C1452.17 1555.13 1447.73 1544.63 1438.87 1537.4C1430 1529.93 1417.05 1526.2 1400.02 1526.2H1353.82V1611.25H1400.02Z" fill="#D9B6A3"/>
</svg>