<svg width="3789" height="1386" viewBox="0 0 3789 1386" fill="none" xmlns="http://www.w3.org/2000/svg">
    <path d="M1074.02 77.4603H1019.32L1018.13 76.6543C973.468 45.8097 886.542 -14.1086 767.51 3.02229C767.703 3.29475 767.794 3.61262 767.975 3.88508C679.687 18.507 580.817 87.3483 547.827 180.2C516.005 269.657 540.629 377.256 621.096 500.1L744.146 688.12C930.215 595.086 923.562 453.362 919.6 368.685C919.01 356.208 918.624 347.183 918.624 339.168C918.624 315.056 938.139 295.552 962.24 295.552C986.353 295.552 1005.86 315.056 1005.86 339.168C1005.86 345.946 1006.24 353.609 1006.63 361.919C1011.06 456.484 1020 647.728 783.165 766.145C768.384 773.547 743.863 788.135 728.945 788.135C714.63 788.135 700.7 781.108 692.401 768.416L548.088 547.894C451.943 401.016 424.175 267.478 465.611 150.979C474.841 125.038 487.556 102.719 501.429 81.9786C220.896 115.877 0.304107 355.448 0.190581 650.793C-0.8425 694.761 -1.75071 828.549 114.84 1000.38C155.562 1060.45 177.12 1135.5 177.12 1217.45V1342.38C177.12 1366.5 196.624 1386 220.737 1386H395.203C419.316 1386 438.24 1366.5 438.24 1342.38V1124.29H613.297V1342.38C613.297 1366.5 632.812 1386 656.925 1386H831.391C855.504 1386 874.428 1366.5 874.428 1342.38C874.428 1173.23 909.644 1021.72 980.949 879.159L1030.49 780.075L1114.66 794.095C1178 804.653 1223.96 858.917 1223.96 923.161V993.444C1223.96 1029.18 1174.93 1049.63 1149.5 1024.28C1132.47 1007.24 1104.86 1007.24 1087.82 1024.28L964.545 1147.55C947.516 1164.59 947.516 1192.19 964.545 1209.23C1038.37 1283.14 1143.62 1313.29 1245.85 1289.87C1375.86 1260.09 1488 1115.69 1488 974.565V489.1C1488 262.108 1301.02 77.4603 1074.02 77.4603ZM1180.35 513.644C1156.27 513.644 1136.73 494.106 1136.73 470.017C1136.73 445.927 1156.27 426.4 1180.35 426.4C1204.44 426.4 1223.97 445.927 1223.97 470.017C1223.97 494.106 1204.44 513.644 1180.35 513.644Z" fill="#D9B6A3"/>
    <path d="M1517.05 629H1628.35C1654.95 629 1678.4 634.133 1698.7 644.4C1719.23 654.433 1735.1 668.667 1746.3 687.1C1757.73 705.533 1763.45 727 1763.45 751.5C1763.45 776 1757.73 797.467 1746.3 815.9C1735.1 834.333 1719.23 848.683 1698.7 858.95C1678.4 868.983 1654.95 874 1628.35 874H1517.05V629ZM1625.55 827.45C1650.05 827.45 1669.53 820.683 1684 807.15C1698.7 793.383 1706.05 774.833 1706.05 751.5C1706.05 728.167 1698.7 709.733 1684 696.2C1669.53 682.433 1650.05 675.55 1625.55 675.55H1573.75V827.45H1625.55ZM1995.91 828.5V874H1806.21V629H1991.36V674.5H1862.56V727.7H1976.31V771.8H1862.56V828.5H1995.91ZM2121.52 878.2C2102.16 878.2 2083.37 875.633 2065.17 870.5C2047.21 865.133 2032.74 858.25 2021.77 849.85L2041.02 807.15C2051.52 814.85 2064.01 821.033 2078.47 825.7C2092.94 830.367 2107.41 832.7 2121.87 832.7C2137.97 832.7 2149.87 830.367 2157.57 825.7C2165.27 820.8 2169.12 814.383 2169.12 806.45C2169.12 800.617 2166.79 795.833 2162.12 792.1C2157.69 788.133 2151.86 784.983 2144.62 782.65C2137.62 780.317 2128.06 777.75 2115.92 774.95C2097.26 770.517 2081.97 766.083 2070.07 761.65C2058.17 757.217 2047.91 750.1 2039.27 740.3C2030.87 730.5 2026.67 717.433 2026.67 701.1C2026.67 686.867 2030.52 674.033 2038.22 662.6C2045.92 650.933 2057.47 641.717 2072.87 634.95C2088.51 628.183 2107.52 624.8 2129.92 624.8C2145.56 624.8 2160.84 626.667 2175.77 630.4C2190.71 634.133 2203.77 639.5 2214.97 646.5L2197.47 689.55C2174.84 676.717 2152.21 670.3 2129.57 670.3C2113.71 670.3 2101.92 672.867 2094.22 678C2086.76 683.133 2083.02 689.9 2083.02 698.3C2083.02 706.7 2087.34 713 2095.97 717.2C2104.84 721.167 2118.26 725.133 2136.22 729.1C2154.89 733.533 2170.17 737.967 2182.07 742.4C2193.97 746.833 2204.12 753.833 2212.52 763.4C2221.16 772.967 2225.47 785.917 2225.47 802.25C2225.47 816.25 2221.51 829.083 2213.57 840.75C2205.87 852.183 2194.21 861.283 2178.57 868.05C2162.94 874.817 2143.92 878.2 2121.52 878.2ZM3231.16 828.5V874H3041.46V629H3226.61V674.5H3097.81V727.7H3211.56V771.8H3097.81V828.5H3231.16ZM3441.14 747.65H3492.94V847.05C3479.64 857.083 3464.24 864.783 3446.74 870.15C3429.24 875.517 3411.63 878.2 3393.89 878.2C3368.46 878.2 3345.59 872.833 3325.29 862.1C3304.99 851.133 3289.01 836.083 3277.34 816.95C3265.91 797.583 3260.19 775.767 3260.19 751.5C3260.19 727.233 3265.91 705.533 3277.34 686.4C3289.01 667.033 3305.11 651.983 3325.64 641.25C3346.18 630.283 3369.28 624.8 3394.94 624.8C3416.41 624.8 3435.89 628.417 3453.39 635.65C3470.89 642.883 3485.59 653.383 3497.49 667.15L3461.09 700.75C3443.59 682.317 3422.48 673.1 3397.74 673.1C3382.11 673.1 3368.23 676.367 3356.09 682.9C3343.96 689.433 3334.51 698.65 3327.74 710.55C3320.98 722.45 3317.59 736.1 3317.59 751.5C3317.59 766.667 3320.98 780.2 3327.74 792.1C3334.51 804 3343.84 813.333 3355.74 820.1C3367.88 826.633 3381.64 829.9 3397.04 829.9C3413.38 829.9 3428.08 826.4 3441.14 819.4V747.65ZM3706.96 821.5H3593.21L3571.51 874H3513.41L3622.61 629H3678.61L3788.16 874H3728.66L3706.96 821.5ZM3689.11 778.45L3650.26 684.65L3611.41 778.45H3689.11Z" fill="#400101"/>
    <path d="M2425.57 821.5H2311.82L2290.12 874H2232.02L2341.22 629H2397.22L2506.77 874H2447.27L2425.57 821.5ZM2407.72 778.45L2368.87 684.65L2330.02 778.45H2407.72ZM2638.24 629C2659.94 629 2678.72 632.617 2694.59 639.85C2710.69 647.083 2723.05 657.35 2731.69 670.65C2740.32 683.95 2744.64 699.7 2744.64 717.9C2744.64 735.867 2740.32 751.617 2731.69 765.15C2723.05 778.45 2710.69 788.717 2694.59 795.95C2678.72 802.95 2659.94 806.45 2638.24 806.45H2588.89V874H2532.19V629H2638.24ZM2635.09 760.25C2652.12 760.25 2665.07 756.633 2673.94 749.4C2682.8 741.933 2687.24 731.433 2687.24 717.9C2687.24 704.133 2682.8 693.633 2673.94 686.4C2665.07 678.933 2652.12 675.2 2635.09 675.2H2588.89V760.25H2635.09ZM2891.17 629C2912.87 629 2931.65 632.617 2947.52 639.85C2963.62 647.083 2975.98 657.35 2984.62 670.65C2993.25 683.95 2997.57 699.7 2997.57 717.9C2997.57 735.867 2993.25 751.617 2984.62 765.15C2975.98 778.45 2963.62 788.717 2947.52 795.95C2931.65 802.95 2912.87 806.45 2891.17 806.45H2841.82V874H2785.12V629H2891.17ZM2888.02 760.25C2905.05 760.25 2918 756.633 2926.87 749.4C2935.73 741.933 2940.17 731.433 2940.17 717.9C2940.17 704.133 2935.73 693.633 2926.87 686.4C2918 678.933 2905.05 675.2 2888.02 675.2H2841.82V760.25H2888.02Z" fill="#D9B6A3"/>
</svg>